<?xml version="1.0" encoding="UTF-8"?>
<svg version="1.1" baseProfile="tiny" xmlns="http://www.w3.org/2000/svg" width="588" height="588">
<rect shape-rendering="optimizeSpeed"  x="0" y="0" width="588" height="588" fill="white" />
<rect shape-rendering="optimizeSpeed"  x="0" y="0" width="28" height="28" fill="black" />
<rect shape-rendering="optimizeSpeed"  x="28" y="0" width="28" height="28" fill="black" />
<rect shape-rendering="optimizeSpeed"  x="56" y="0" width="28" height="28" fill="black" />
<rect shape-rendering="optimizeSpeed"  x="84" y="0" width="28" height="28" fill="black" />
<rect shape-rendering="optimizeSpeed"  x="112" y="0" width="28" height="28" fill="black" />
<rect shape-rendering="optimizeSpeed"  x="140" y="0" width="28" height="28" fill="black" />
<rect shape-rendering="optimizeSpeed"  x="168" y="0" width="28" height="28" fill="black" />
<rect shape-rendering="optimizeSpeed"  x="224" y="0" width="28" height="28" fill="black" />
<rect shape-rendering="optimizeSpeed"  x="252" y="0" width="28" height="28" fill="black" />
<rect shape-rendering="optimizeSpeed"  x="280" y="0" width="28" height="28" fill="black" />
<rect shape-rendering="optimizeSpeed"  x="308" y="0" width="28" height="28" fill="black" />
<rect shape-rendering="optimizeSpeed"  x="336" y="0" width="28" height="28" fill="black" />
<rect shape-rendering="optimizeSpeed"  x="392" y="0" width="28" height="28" fill="black" />
<rect shape-rendering="optimizeSpeed"  x="420" y="0" width="28" height="28" fill="black" />
<rect shape-rendering="optimizeSpeed"  x="448" y="0" width="28" height="28" fill="black" />
<rect shape-rendering="optimizeSpeed"  x="476" y="0" width="28" height="28" fill="black" />
<rect shape-rendering="optimizeSpeed"  x="504" y="0" width="28" height="28" fill="black" />
<rect shape-rendering="optimizeSpeed"  x="532" y="0" width="28" height="28" fill="black" />
<rect shape-rendering="optimizeSpeed"  x="560" y="0" width="28" height="28" fill="black" />
<rect shape-rendering="optimizeSpeed"  x="0" y="28" width="28" height="28" fill="black" />
<rect shape-rendering="optimizeSpeed"  x="168" y="28" width="28" height="28" fill="black" />
<rect shape-rendering="optimizeSpeed"  x="252" y="28" width="28" height="28" fill="black" />
<rect shape-rendering="optimizeSpeed"  x="308" y="28" width="28" height="28" fill="black" />
<rect shape-rendering="optimizeSpeed"  x="392" y="28" width="28" height="28" fill="black" />
<rect shape-rendering="optimizeSpeed"  x="560" y="28" width="28" height="28" fill="black" />
<rect shape-rendering="optimizeSpeed"  x="0" y="56" width="28" height="28" fill="black" />
<rect shape-rendering="optimizeSpeed"  x="56" y="56" width="28" height="28" fill="black" />
<rect shape-rendering="optimizeSpeed"  x="84" y="56" width="28" height="28" fill="black" />
<rect shape-rendering="optimizeSpeed"  x="112" y="56" width="28" height="28" fill="black" />
<rect shape-rendering="optimizeSpeed"  x="168" y="56" width="28" height="28" fill="black" />
<rect shape-rendering="optimizeSpeed"  x="252" y="56" width="28" height="28" fill="black" />
<rect shape-rendering="optimizeSpeed"  x="280" y="56" width="28" height="28" fill="black" />
<rect shape-rendering="optimizeSpeed"  x="392" y="56" width="28" height="28" fill="black" />
<rect shape-rendering="optimizeSpeed"  x="448" y="56" width="28" height="28" fill="black" />
<rect shape-rendering="optimizeSpeed"  x="476" y="56" width="28" height="28" fill="black" />
<rect shape-rendering="optimizeSpeed"  x="504" y="56" width="28" height="28" fill="black" />
<rect shape-rendering="optimizeSpeed"  x="560" y="56" width="28" height="28" fill="black" />
<rect shape-rendering="optimizeSpeed"  x="0" y="84" width="28" height="28" fill="black" />
<rect shape-rendering="optimizeSpeed"  x="56" y="84" width="28" height="28" fill="black" />
<rect shape-rendering="optimizeSpeed"  x="84" y="84" width="28" height="28" fill="black" />
<rect shape-rendering="optimizeSpeed"  x="112" y="84" width="28" height="28" fill="black" />
<rect shape-rendering="optimizeSpeed"  x="168" y="84" width="28" height="28" fill="black" />
<rect shape-rendering="optimizeSpeed"  x="252" y="84" width="28" height="28" fill="black" />
<rect shape-rendering="optimizeSpeed"  x="280" y="84" width="28" height="28" fill="black" />
<rect shape-rendering="optimizeSpeed"  x="308" y="84" width="28" height="28" fill="black" />
<rect shape-rendering="optimizeSpeed"  x="392" y="84" width="28" height="28" fill="black" />
<rect shape-rendering="optimizeSpeed"  x="448" y="84" width="28" height="28" fill="black" />
<rect shape-rendering="optimizeSpeed"  x="476" y="84" width="28" height="28" fill="black" />
<rect shape-rendering="optimizeSpeed"  x="504" y="84" width="28" height="28" fill="black" />
<rect shape-rendering="optimizeSpeed"  x="560" y="84" width="28" height="28" fill="black" />
<rect shape-rendering="optimizeSpeed"  x="0" y="112" width="28" height="28" fill="black" />
<rect shape-rendering="optimizeSpeed"  x="56" y="112" width="28" height="28" fill="black" />
<rect shape-rendering="optimizeSpeed"  x="84" y="112" width="28" height="28" fill="black" />
<rect shape-rendering="optimizeSpeed"  x="112" y="112" width="28" height="28" fill="black" />
<rect shape-rendering="optimizeSpeed"  x="168" y="112" width="28" height="28" fill="black" />
<rect shape-rendering="optimizeSpeed"  x="280" y="112" width="28" height="28" fill="black" />
<rect shape-rendering="optimizeSpeed"  x="336" y="112" width="28" height="28" fill="black" />
<rect shape-rendering="optimizeSpeed"  x="392" y="112" width="28" height="28" fill="black" />
<rect shape-rendering="optimizeSpeed"  x="448" y="112" width="28" height="28" fill="black" />
<rect shape-rendering="optimizeSpeed"  x="476" y="112" width="28" height="28" fill="black" />
<rect shape-rendering="optimizeSpeed"  x="504" y="112" width="28" height="28" fill="black" />
<rect shape-rendering="optimizeSpeed"  x="560" y="112" width="28" height="28" fill="black" />
<rect shape-rendering="optimizeSpeed"  x="0" y="140" width="28" height="28" fill="black" />
<rect shape-rendering="optimizeSpeed"  x="168" y="140" width="28" height="28" fill="black" />
<rect shape-rendering="optimizeSpeed"  x="308" y="140" width="28" height="28" fill="black" />
<rect shape-rendering="optimizeSpeed"  x="336" y="140" width="28" height="28" fill="black" />
<rect shape-rendering="optimizeSpeed"  x="392" y="140" width="28" height="28" fill="black" />
<rect shape-rendering="optimizeSpeed"  x="560" y="140" width="28" height="28" fill="black" />
<rect shape-rendering="optimizeSpeed"  x="0" y="168" width="28" height="28" fill="black" />
<rect shape-rendering="optimizeSpeed"  x="28" y="168" width="28" height="28" fill="black" />
<rect shape-rendering="optimizeSpeed"  x="56" y="168" width="28" height="28" fill="black" />
<rect shape-rendering="optimizeSpeed"  x="84" y="168" width="28" height="28" fill="black" />
<rect shape-rendering="optimizeSpeed"  x="112" y="168" width="28" height="28" fill="black" />
<rect shape-rendering="optimizeSpeed"  x="140" y="168" width="28" height="28" fill="black" />
<rect shape-rendering="optimizeSpeed"  x="168" y="168" width="28" height="28" fill="black" />
<rect shape-rendering="optimizeSpeed"  x="224" y="168" width="28" height="28" fill="black" />
<rect shape-rendering="optimizeSpeed"  x="280" y="168" width="28" height="28" fill="black" />
<rect shape-rendering="optimizeSpeed"  x="336" y="168" width="28" height="28" fill="black" />
<rect shape-rendering="optimizeSpeed"  x="392" y="168" width="28" height="28" fill="black" />
<rect shape-rendering="optimizeSpeed"  x="420" y="168" width="28" height="28" fill="black" />
<rect shape-rendering="optimizeSpeed"  x="448" y="168" width="28" height="28" fill="black" />
<rect shape-rendering="optimizeSpeed"  x="476" y="168" width="28" height="28" fill="black" />
<rect shape-rendering="optimizeSpeed"  x="504" y="168" width="28" height="28" fill="black" />
<rect shape-rendering="optimizeSpeed"  x="532" y="168" width="28" height="28" fill="black" />
<rect shape-rendering="optimizeSpeed"  x="560" y="168" width="28" height="28" fill="black" />
<rect shape-rendering="optimizeSpeed"  x="224" y="196" width="28" height="28" fill="black" />
<rect shape-rendering="optimizeSpeed"  x="252" y="196" width="28" height="28" fill="black" />
<rect shape-rendering="optimizeSpeed"  x="280" y="196" width="28" height="28" fill="black" />
<rect shape-rendering="optimizeSpeed"  x="308" y="196" width="28" height="28" fill="black" />
<rect shape-rendering="optimizeSpeed"  x="336" y="196" width="28" height="28" fill="black" />
<rect shape-rendering="optimizeSpeed"  x="0" y="224" width="28" height="28" fill="black" />
<rect shape-rendering="optimizeSpeed"  x="28" y="224" width="28" height="28" fill="black" />
<rect shape-rendering="optimizeSpeed"  x="84" y="224" width="28" height="28" fill="black" />
<rect shape-rendering="optimizeSpeed"  x="112" y="224" width="28" height="28" fill="black" />
<rect shape-rendering="optimizeSpeed"  x="168" y="224" width="28" height="28" fill="black" />
<rect shape-rendering="optimizeSpeed"  x="252" y="224" width="28" height="28" fill="black" />
<rect shape-rendering="optimizeSpeed"  x="280" y="224" width="28" height="28" fill="black" />
<rect shape-rendering="optimizeSpeed"  x="336" y="224" width="28" height="28" fill="black" />
<rect shape-rendering="optimizeSpeed"  x="392" y="224" width="28" height="28" fill="black" />
<rect shape-rendering="optimizeSpeed"  x="560" y="224" width="28" height="28" fill="black" />
<rect shape-rendering="optimizeSpeed"  x="0" y="252" width="28" height="28" fill="black" />
<rect shape-rendering="optimizeSpeed"  x="28" y="252" width="28" height="28" fill="black" />
<rect shape-rendering="optimizeSpeed"  x="56" y="252" width="28" height="28" fill="black" />
<rect shape-rendering="optimizeSpeed"  x="112" y="252" width="28" height="28" fill="black" />
<rect shape-rendering="optimizeSpeed"  x="140" y="252" width="28" height="28" fill="black" />
<rect shape-rendering="optimizeSpeed"  x="336" y="252" width="28" height="28" fill="black" />
<rect shape-rendering="optimizeSpeed"  x="392" y="252" width="28" height="28" fill="black" />
<rect shape-rendering="optimizeSpeed"  x="448" y="252" width="28" height="28" fill="black" />
<rect shape-rendering="optimizeSpeed"  x="504" y="252" width="28" height="28" fill="black" />
<rect shape-rendering="optimizeSpeed"  x="532" y="252" width="28" height="28" fill="black" />
<rect shape-rendering="optimizeSpeed"  x="56" y="280" width="28" height="28" fill="black" />
<rect shape-rendering="optimizeSpeed"  x="84" y="280" width="28" height="28" fill="black" />
<rect shape-rendering="optimizeSpeed"  x="140" y="280" width="28" height="28" fill="black" />
<rect shape-rendering="optimizeSpeed"  x="168" y="280" width="28" height="28" fill="black" />
<rect shape-rendering="optimizeSpeed"  x="196" y="280" width="28" height="28" fill="black" />
<rect shape-rendering="optimizeSpeed"  x="224" y="280" width="28" height="28" fill="black" />
<rect shape-rendering="optimizeSpeed"  x="364" y="280" width="28" height="28" fill="black" />
<rect shape-rendering="optimizeSpeed"  x="392" y="280" width="28" height="28" fill="black" />
<rect shape-rendering="optimizeSpeed"  x="448" y="280" width="28" height="28" fill="black" />
<rect shape-rendering="optimizeSpeed"  x="476" y="280" width="28" height="28" fill="black" />
<rect shape-rendering="optimizeSpeed"  x="504" y="280" width="28" height="28" fill="black" />
<rect shape-rendering="optimizeSpeed"  x="0" y="308" width="28" height="28" fill="black" />
<rect shape-rendering="optimizeSpeed"  x="56" y="308" width="28" height="28" fill="black" />
<rect shape-rendering="optimizeSpeed"  x="84" y="308" width="28" height="28" fill="black" />
<rect shape-rendering="optimizeSpeed"  x="112" y="308" width="28" height="28" fill="black" />
<rect shape-rendering="optimizeSpeed"  x="140" y="308" width="28" height="28" fill="black" />
<rect shape-rendering="optimizeSpeed"  x="196" y="308" width="28" height="28" fill="black" />
<rect shape-rendering="optimizeSpeed"  x="280" y="308" width="28" height="28" fill="black" />
<rect shape-rendering="optimizeSpeed"  x="308" y="308" width="28" height="28" fill="black" />
<rect shape-rendering="optimizeSpeed"  x="476" y="308" width="28" height="28" fill="black" />
<rect shape-rendering="optimizeSpeed"  x="504" y="308" width="28" height="28" fill="black" />
<rect shape-rendering="optimizeSpeed"  x="532" y="308" width="28" height="28" fill="black" />
<rect shape-rendering="optimizeSpeed"  x="560" y="308" width="28" height="28" fill="black" />
<rect shape-rendering="optimizeSpeed"  x="56" y="336" width="28" height="28" fill="black" />
<rect shape-rendering="optimizeSpeed"  x="84" y="336" width="28" height="28" fill="black" />
<rect shape-rendering="optimizeSpeed"  x="112" y="336" width="28" height="28" fill="black" />
<rect shape-rendering="optimizeSpeed"  x="168" y="336" width="28" height="28" fill="black" />
<rect shape-rendering="optimizeSpeed"  x="196" y="336" width="28" height="28" fill="black" />
<rect shape-rendering="optimizeSpeed"  x="224" y="336" width="28" height="28" fill="black" />
<rect shape-rendering="optimizeSpeed"  x="252" y="336" width="28" height="28" fill="black" />
<rect shape-rendering="optimizeSpeed"  x="280" y="336" width="28" height="28" fill="black" />
<rect shape-rendering="optimizeSpeed"  x="392" y="336" width="28" height="28" fill="black" />
<rect shape-rendering="optimizeSpeed"  x="476" y="336" width="28" height="28" fill="black" />
<rect shape-rendering="optimizeSpeed"  x="504" y="336" width="28" height="28" fill="black" />
<rect shape-rendering="optimizeSpeed"  x="560" y="336" width="28" height="28" fill="black" />
<rect shape-rendering="optimizeSpeed"  x="224" y="364" width="28" height="28" fill="black" />
<rect shape-rendering="optimizeSpeed"  x="252" y="364" width="28" height="28" fill="black" />
<rect shape-rendering="optimizeSpeed"  x="280" y="364" width="28" height="28" fill="black" />
<rect shape-rendering="optimizeSpeed"  x="308" y="364" width="28" height="28" fill="black" />
<rect shape-rendering="optimizeSpeed"  x="336" y="364" width="28" height="28" fill="black" />
<rect shape-rendering="optimizeSpeed"  x="420" y="364" width="28" height="28" fill="black" />
<rect shape-rendering="optimizeSpeed"  x="476" y="364" width="28" height="28" fill="black" />
<rect shape-rendering="optimizeSpeed"  x="532" y="364" width="28" height="28" fill="black" />
<rect shape-rendering="optimizeSpeed"  x="560" y="364" width="28" height="28" fill="black" />
<rect shape-rendering="optimizeSpeed"  x="0" y="392" width="28" height="28" fill="black" />
<rect shape-rendering="optimizeSpeed"  x="28" y="392" width="28" height="28" fill="black" />
<rect shape-rendering="optimizeSpeed"  x="56" y="392" width="28" height="28" fill="black" />
<rect shape-rendering="optimizeSpeed"  x="84" y="392" width="28" height="28" fill="black" />
<rect shape-rendering="optimizeSpeed"  x="112" y="392" width="28" height="28" fill="black" />
<rect shape-rendering="optimizeSpeed"  x="140" y="392" width="28" height="28" fill="black" />
<rect shape-rendering="optimizeSpeed"  x="168" y="392" width="28" height="28" fill="black" />
<rect shape-rendering="optimizeSpeed"  x="280" y="392" width="28" height="28" fill="black" />
<rect shape-rendering="optimizeSpeed"  x="336" y="392" width="28" height="28" fill="black" />
<rect shape-rendering="optimizeSpeed"  x="364" y="392" width="28" height="28" fill="black" />
<rect shape-rendering="optimizeSpeed"  x="392" y="392" width="28" height="28" fill="black" />
<rect shape-rendering="optimizeSpeed"  x="420" y="392" width="28" height="28" fill="black" />
<rect shape-rendering="optimizeSpeed"  x="448" y="392" width="28" height="28" fill="black" />
<rect shape-rendering="optimizeSpeed"  x="560" y="392" width="28" height="28" fill="black" />
<rect shape-rendering="optimizeSpeed"  x="0" y="420" width="28" height="28" fill="black" />
<rect shape-rendering="optimizeSpeed"  x="168" y="420" width="28" height="28" fill="black" />
<rect shape-rendering="optimizeSpeed"  x="308" y="420" width="28" height="28" fill="black" />
<rect shape-rendering="optimizeSpeed"  x="336" y="420" width="28" height="28" fill="black" />
<rect shape-rendering="optimizeSpeed"  x="364" y="420" width="28" height="28" fill="black" />
<rect shape-rendering="optimizeSpeed"  x="420" y="420" width="28" height="28" fill="black" />
<rect shape-rendering="optimizeSpeed"  x="448" y="420" width="28" height="28" fill="black" />
<rect shape-rendering="optimizeSpeed"  x="476" y="420" width="28" height="28" fill="black" />
<rect shape-rendering="optimizeSpeed"  x="560" y="420" width="28" height="28" fill="black" />
<rect shape-rendering="optimizeSpeed"  x="0" y="448" width="28" height="28" fill="black" />
<rect shape-rendering="optimizeSpeed"  x="56" y="448" width="28" height="28" fill="black" />
<rect shape-rendering="optimizeSpeed"  x="84" y="448" width="28" height="28" fill="black" />
<rect shape-rendering="optimizeSpeed"  x="112" y="448" width="28" height="28" fill="black" />
<rect shape-rendering="optimizeSpeed"  x="168" y="448" width="28" height="28" fill="black" />
<rect shape-rendering="optimizeSpeed"  x="224" y="448" width="28" height="28" fill="black" />
<rect shape-rendering="optimizeSpeed"  x="280" y="448" width="28" height="28" fill="black" />
<rect shape-rendering="optimizeSpeed"  x="308" y="448" width="28" height="28" fill="black" />
<rect shape-rendering="optimizeSpeed"  x="336" y="448" width="28" height="28" fill="black" />
<rect shape-rendering="optimizeSpeed"  x="392" y="448" width="28" height="28" fill="black" />
<rect shape-rendering="optimizeSpeed"  x="420" y="448" width="28" height="28" fill="black" />
<rect shape-rendering="optimizeSpeed"  x="476" y="448" width="28" height="28" fill="black" />
<rect shape-rendering="optimizeSpeed"  x="504" y="448" width="28" height="28" fill="black" />
<rect shape-rendering="optimizeSpeed"  x="560" y="448" width="28" height="28" fill="black" />
<rect shape-rendering="optimizeSpeed"  x="0" y="476" width="28" height="28" fill="black" />
<rect shape-rendering="optimizeSpeed"  x="56" y="476" width="28" height="28" fill="black" />
<rect shape-rendering="optimizeSpeed"  x="84" y="476" width="28" height="28" fill="black" />
<rect shape-rendering="optimizeSpeed"  x="112" y="476" width="28" height="28" fill="black" />
<rect shape-rendering="optimizeSpeed"  x="168" y="476" width="28" height="28" fill="black" />
<rect shape-rendering="optimizeSpeed"  x="224" y="476" width="28" height="28" fill="black" />
<rect shape-rendering="optimizeSpeed"  x="280" y="476" width="28" height="28" fill="black" />
<rect shape-rendering="optimizeSpeed"  x="308" y="476" width="28" height="28" fill="black" />
<rect shape-rendering="optimizeSpeed"  x="336" y="476" width="28" height="28" fill="black" />
<rect shape-rendering="optimizeSpeed"  x="448" y="476" width="28" height="28" fill="black" />
<rect shape-rendering="optimizeSpeed"  x="476" y="476" width="28" height="28" fill="black" />
<rect shape-rendering="optimizeSpeed"  x="504" y="476" width="28" height="28" fill="black" />
<rect shape-rendering="optimizeSpeed"  x="0" y="504" width="28" height="28" fill="black" />
<rect shape-rendering="optimizeSpeed"  x="56" y="504" width="28" height="28" fill="black" />
<rect shape-rendering="optimizeSpeed"  x="84" y="504" width="28" height="28" fill="black" />
<rect shape-rendering="optimizeSpeed"  x="112" y="504" width="28" height="28" fill="black" />
<rect shape-rendering="optimizeSpeed"  x="168" y="504" width="28" height="28" fill="black" />
<rect shape-rendering="optimizeSpeed"  x="252" y="504" width="28" height="28" fill="black" />
<rect shape-rendering="optimizeSpeed"  x="280" y="504" width="28" height="28" fill="black" />
<rect shape-rendering="optimizeSpeed"  x="392" y="504" width="28" height="28" fill="black" />
<rect shape-rendering="optimizeSpeed"  x="504" y="504" width="28" height="28" fill="black" />
<rect shape-rendering="optimizeSpeed"  x="532" y="504" width="28" height="28" fill="black" />
<rect shape-rendering="optimizeSpeed"  x="560" y="504" width="28" height="28" fill="black" />
<rect shape-rendering="optimizeSpeed"  x="0" y="532" width="28" height="28" fill="black" />
<rect shape-rendering="optimizeSpeed"  x="168" y="532" width="28" height="28" fill="black" />
<rect shape-rendering="optimizeSpeed"  x="224" y="532" width="28" height="28" fill="black" />
<rect shape-rendering="optimizeSpeed"  x="280" y="532" width="28" height="28" fill="black" />
<rect shape-rendering="optimizeSpeed"  x="364" y="532" width="28" height="28" fill="black" />
<rect shape-rendering="optimizeSpeed"  x="392" y="532" width="28" height="28" fill="black" />
<rect shape-rendering="optimizeSpeed"  x="448" y="532" width="28" height="28" fill="black" />
<rect shape-rendering="optimizeSpeed"  x="504" y="532" width="28" height="28" fill="black" />
<rect shape-rendering="optimizeSpeed"  x="560" y="532" width="28" height="28" fill="black" />
<rect shape-rendering="optimizeSpeed"  x="0" y="560" width="28" height="28" fill="black" />
<rect shape-rendering="optimizeSpeed"  x="28" y="560" width="28" height="28" fill="black" />
<rect shape-rendering="optimizeSpeed"  x="56" y="560" width="28" height="28" fill="black" />
<rect shape-rendering="optimizeSpeed"  x="84" y="560" width="28" height="28" fill="black" />
<rect shape-rendering="optimizeSpeed"  x="112" y="560" width="28" height="28" fill="black" />
<rect shape-rendering="optimizeSpeed"  x="140" y="560" width="28" height="28" fill="black" />
<rect shape-rendering="optimizeSpeed"  x="168" y="560" width="28" height="28" fill="black" />
<rect shape-rendering="optimizeSpeed"  x="224" y="560" width="28" height="28" fill="black" />
<rect shape-rendering="optimizeSpeed"  x="252" y="560" width="28" height="28" fill="black" />
<rect shape-rendering="optimizeSpeed"  x="308" y="560" width="28" height="28" fill="black" />
<rect shape-rendering="optimizeSpeed"  x="476" y="560" width="28" height="28" fill="black" />
<rect shape-rendering="optimizeSpeed"  x="504" y="560" width="28" height="28" fill="black" />
<rect shape-rendering="optimizeSpeed"  x="532" y="560" width="28" height="28" fill="black" /></svg>